<svg width="600" height="600" viewBox="0 0 600 600" fill="none" xmlns="http://www.w3.org/2000/svg">
<rect width="600" height="600" fill="#FCFCFC"/>
<path d="M425.019 384.501L444.019 412.001V417.996H425.019V384.501ZM444.019 392.001L425.019 364.501V305.996H444.019V392.001Z" fill="#212020"/>
<path d="M371.018 305.996L425.017 384.474L425.017 417.995L371.017 339.507L371.018 305.996Z" fill="#212020"/>
<path d="M371.019 339.501L352.021 312V332.001L371.019 360.001V417.996H352.019V305.996H371.019V339.501Z" fill="#212020"/>
<rect x="388.019" y="210" width="19" height="83" fill="#212020"/>
<rect x="352.019" y="200" width="19" height="92" transform="rotate(-90 352.019 200)" fill="#212020"/>
<path d="M249.914 306C258.46 306 266.656 309.582 272.698 315.958C278.741 322.334 282.136 330.983 282.136 340C282.136 349.017 278.741 357.666 272.698 364.042C267.2 369.844 259.918 373.331 252.213 373.912L281.019 418H259.119L230.373 374H175.019V419H156.019V374H155.981V355H156.019V307H175.019V355H249.984C253.729 354.98 257.316 353.403 259.966 350.607C262.632 347.794 264.13 343.978 264.13 340C264.13 336.022 262.632 332.206 259.966 329.393C257.3 326.58 253.684 324.999 249.914 324.999V306ZM221 418H203V386H221V418ZM221 343H203V306H221V343Z" fill="#212020"/>
<path d="M325.019 181H307.21L262.019 293H281.701L316.27 210.037H317.274L333.851 251.519H311.722L303.519 270.704H341.386L350.336 293H370.019L325.019 181Z" fill="#212020"/>
<path d="M260.852 265.66C254.487 276.272 244.767 284.496 233.206 289.052C221.645 293.608 208.892 294.24 196.932 290.85C184.971 287.46 174.475 280.238 167.077 270.308C159.68 260.379 155.795 248.299 156.028 235.949C156.262 223.599 160.6 211.672 168.368 202.025C176.136 192.379 186.898 185.553 198.978 182.611C211.058 179.67 223.778 180.777 235.159 185.76C246.539 190.744 255.941 199.325 261.901 210.166L245.148 219.249C241.206 212.077 234.986 206.401 227.458 203.104C219.929 199.807 211.515 199.075 203.524 201.021C195.532 202.967 188.413 207.482 183.275 213.864C178.136 220.245 175.266 228.135 175.112 236.305C174.957 244.474 177.527 252.465 182.421 259.034C187.315 265.603 194.258 270.38 202.17 272.623C210.082 274.865 218.518 274.447 226.166 271.433C233.814 268.419 240.244 262.979 244.454 255.959L260.852 265.66Z" fill="#212020"/>
<rect x="307.019" y="306" width="19" height="112" fill="#212020"/>
</svg>
